<svg width="1062.658" height="197.88" viewBox="0 0 281.162 52.356" xml:space="preserve" xmlns="http://www.w3.org/2000/svg">
  <path d="M131.024 27.393a16.434 16.434 0 0 1-16.434 16.434 16.434 16.434 0 0 1-16.435-16.434 16.434 16.434 0 0 1 16.435-16.435 16.434 16.434 0 0 1 16.434 16.435Z"/>
  <path style="line-height:1.25;-inkscape-font-specification:'Tilt Neon';text-align:center" d="M271.165 72.951c-.61 0-1.151.22-1.625.66-.44.407-.66 1.033-.66 1.88v33.274c0 .88.22 1.54.66 1.981.474.407 1.016.61 1.625.61.61 0 1.135-.22 1.575-.66.474-.44.712-1.084.712-1.931v-8.651c.666.67 1.527 1.42 2.59 2.25a54.28 54.28 0 0 1 3.15 2.642c1.05.914 2.1 1.845 3.15 2.794a337.38 337.38 0 0 1 2.997 2.641c.61.576 1.219.83 1.828.763.644-.034 1.169-.272 1.575-.712.406-.44.61-.965.61-1.575 0-.643-.322-1.253-.965-1.828a273.809 273.809 0 0 0-3.048-2.795 87.733 87.733 0 0 0-3.252-2.793 104.218 104.218 0 0 0-3.2-2.693 119.85 119.85 0 0 0-1.575-1.22c-.27-.236-.27-.44 0-.608l1.626-1.22a617.955 617.955 0 0 1 2.997-2.184 111.055 111.055 0 0 0 2.946-2.134 319.85 319.85 0 0 0 2.845-2.083c.677-.508 1.05-1.066 1.118-1.676.068-.643-.085-1.202-.457-1.676-.34-.508-.83-.813-1.474-.915-.61-.102-1.253.102-1.93.61-.88.677-1.812 1.371-2.794 2.082-.948.678-1.93 1.372-2.947 2.083-.982.712-1.998 1.456-3.047 2.235-1.147.847-2.059 1.615-2.743 2.307V75.491c0-.847-.238-1.473-.712-1.88a2.15 2.15 0 0 0-1.575-.66zm-28.14 22.911q-1.27 0-1.93.711-.66.66-.66 1.575 0 .914.66 1.625.66.66 1.93.66h10.008q2.134 0 3.556-.406 1.473-.406 2.286-1.168.813-.813 1.016-2.032.203-1.22-.102-2.794-.508-2.794-2.082-4.775-1.524-2.032-3.861-3.15-2.337-1.117-5.131-1.117-3.505 0-6.3 1.676-2.793 1.626-4.419 4.623-1.625 2.946-1.625 6.909 0 4.114 1.727 7.06 1.727 2.947 4.623 4.522 2.895 1.575 6.451 1.575 1.423 0 2.947-.305 1.574-.254 3.15-.813 1.574-.61 3.149-1.524 1.117-.61 1.32-1.524.255-.914-.203-1.676-.457-.813-1.371-1.118-.864-.305-1.981.356-1.22.66-2.439 1.117-1.168.458-2.337.712-1.168.203-2.235.203-2.387 0-4.267-.965-1.829-1.016-2.896-2.947-1.066-1.93-1.066-4.673 0-2.591.965-4.522 1.016-1.98 2.743-3.048 1.778-1.066 4.064-1.066 1.727 0 3.099.66 1.371.61 2.235 1.829.914 1.168 1.27 2.794.102.508-.05.711-.102.203-.407.305-.254.05-.762.05-.457-.05-1.067-.05h-10.008zM227.992 75.44q0-1.27-.711-1.88-.66-.66-1.575-.66-.915 0-1.626.66-.66.61-.66 1.88v23.317q0 1.88-.56 3.404-.507 1.473-1.523 2.54-1.016 1.016-2.438 1.575-1.372.508-3.048.508-2.286 0-4.014-1.118-1.727-1.117-2.692-3.048-.965-1.981-.965-4.47 0-1.88.559-3.455.558-1.574 1.524-2.692 1.016-1.168 2.438-1.778 1.422-.66 3.099-.66 2.235 0 3.962 1.066 1.727 1.067 2.693 2.998.965 1.93.965 4.42v11.276q0 1.32.66 1.93.711.66 1.626.66.914 0 1.575-.66.71-.66.71-1.93V98.046q0-2.895-.964-5.283-.915-2.388-2.591-4.115-1.626-1.778-3.861-2.692-2.184-.965-4.775-.965-3.455 0-6.249 1.676-2.743 1.676-4.368 4.674-1.575 2.946-1.575 6.807 0 2.895.914 5.334.915 2.387 2.59 4.165 1.677 1.778 3.913 2.744 2.235.965 4.826.965 2.59 0 4.775-.864 2.235-.914 3.86-2.54 1.677-1.676 2.591-3.962.915-2.337.915-5.233V75.44zm-37.92-4.526c-.537-.015-1.087.23-1.65.733l-1.321 1.118-1.321 1.117c-.407.339-.83.694-1.27 1.067-.406.339-.812.694-1.219 1.067-.643.542-.982 1.134-1.016 1.778-.034.643.135 1.185.508 1.625.406.44.914.695 1.524.763.644.067 1.287-.17 1.93-.712l1.321-1.117c.44-.373.864-.729 1.27-1.067.44-.373.864-.745 1.27-1.118.44-.372.864-.728 1.27-1.067.677-.575 1.016-1.168 1.016-1.777.034-.644-.152-1.186-.558-1.626-.373-.44-.881-.695-1.525-.762a1.668 1.668 0 0 0-.229-.022zm-5.054 14.077c-2.337 0-4.437.558-6.3 1.676-1.862 1.084-3.335 2.624-4.419 4.623-1.083 1.964-1.625 4.267-1.625 6.909 0 2.743.575 5.096 1.727 7.06 1.151 1.965 2.692 3.472 4.623 4.522 1.93 1.05 4.08 1.575 6.452 1.575.948 0 1.93-.102 2.946-.305 1.05-.17 2.1-.44 3.15-.813a22.19 22.19 0 0 0 3.149-1.524c.745-.406 1.185-.914 1.32-1.524.17-.61.102-1.168-.202-1.676a2.38 2.38 0 0 0-1.372-1.118c-.576-.203-1.236-.084-1.981.356-.813.44-1.626.813-2.439 1.118a15.44 15.44 0 0 1-2.336.71c-.78.136-1.524.204-2.235.204-1.592 0-3.015-.322-4.268-.966-1.22-.677-2.184-1.659-2.895-2.946-.508-.918-.831-1.977-.977-3.17.021.023.04.048.062.071.44.44 1.084.66 1.93.66h10.008c1.423 0 2.608-.135 3.556-.406.982-.27 1.744-.66 2.286-1.168.542-.542.88-1.219 1.016-2.032s.102-1.744-.102-2.794c-.338-1.863-1.032-3.455-2.082-4.775a10.308 10.308 0 0 0-3.86-3.15c-1.559-.745-3.27-1.117-5.132-1.117zm0 4.571c1.152 0 2.184.22 3.099.66a5.356 5.356 0 0 1 2.235 1.83c.61.779 1.033 1.71 1.27 2.794.068.339.05.575-.05.711-.068.135-.204.237-.407.305-.17.034-.424.05-.762.05a9.792 9.792 0 0 0-1.067-.05h-10.008c-.846 0-1.49.237-1.93.71l-.052.058c.139-1.087.425-2.072.865-2.953.677-1.32 1.592-2.336 2.743-3.047 1.186-.712 2.54-1.068 4.064-1.068zm-37.03-16.611c-.61 0-1.151.22-1.625.66-.44.407-.66 1.033-.66 1.88v33.274c0 .88.22 1.54.66 1.981.474.407 1.015.61 1.625.61.61 0 1.135-.22 1.575-.66.474-.44.711-1.084.711-1.931v-8.652c.666.671 1.527 1.421 2.591 2.251 1.05.813 2.1 1.694 3.15 2.642 1.05.914 2.1 1.845 3.149 2.794 1.05.914 2.049 1.795 2.997 2.641.61.576 1.22.83 1.829.763.643-.034 1.169-.272 1.575-.712.406-.44.61-.965.61-1.575 0-.643-.322-1.253-.965-1.828a273.852 273.852 0 0 0-3.049-2.795 87.705 87.705 0 0 0-3.25-2.793 104.254 104.254 0 0 0-3.201-2.693 118.85 118.85 0 0 0-1.575-1.22c-.271-.236-.271-.44 0-.608l1.626-1.22a617.773 617.773 0 0 1 2.997-2.184 111.038 111.038 0 0 0 2.946-2.134 319.85 319.85 0 0 0 2.845-2.083c.677-.508 1.05-1.066 1.117-1.676.068-.643-.084-1.202-.456-1.676-.34-.508-.83-.813-1.474-.915-.61-.102-1.253.102-1.93.61-.88.677-1.812 1.371-2.795 2.082-.948.678-1.93 1.372-2.946 2.083-.982.712-1.998 1.456-3.047 2.235-1.148.847-2.06 1.615-2.744 2.308V75.49c0-.847-.237-1.473-.711-1.88a2.15 2.15 0 0 0-1.575-.66zM90.641 93.373q-1.32 0-1.981.71-.61.661-.61 1.576 0 .914.61 1.625.66.66 1.981.66h4.165q3.1 0 5.538-1.371 2.49-1.422 3.86-3.86 1.423-2.44 1.423-5.589 0-2.337-.813-4.318-.812-1.981-2.336-3.454-1.474-1.473-3.607-2.286-2.083-.813-4.674-.813h-4.521q-1.727 0-2.997.406-1.22.356-1.981 1.169-.712.813-1.067 2.083-.356 1.219-.356 2.946v25.908q0 1.32.66 1.981.712.61 1.626.61.915 0 1.575-.66.711-.661.711-1.931V81.739q.051-.406.203-.61.153-.202.508-.253.407-.051 1.118-.051h4.521q2.134 0 3.658.813 1.524.762 2.337 2.184.863 1.372.863 3.302 0 1.88-.813 3.302-.762 1.372-2.184 2.185-1.422.762-3.251.762H90.64zm-17.548-8.37a2.564 2.564 0 0 0-.89.14c-.575.203-1.032.694-1.37 1.473-.34.779-.712 1.626-1.118 2.54-.407.88-.796 1.727-1.169 2.54a51.505 51.505 0 0 1-.914 2.083 264.085 264.085 0 0 1-1.778 4.013 508.58 508.58 0 0 1-1.93 4.217l-.02.044c-.43-.921-.913-1.935-1.504-3.143-.339-.712-.746-1.558-1.22-2.54-.44-.982-.931-2.032-1.473-3.15a149.201 149.201 0 0 0-1.575-3.353 431.397 431.397 0 0 0-1.473-3.302c-.372-.779-.864-1.253-1.473-1.422a2.067 2.067 0 0 0-1.677.101c-.541.237-.93.644-1.168 1.22-.237.576-.186 1.253.152 2.032.475 1.016.983 2.1 1.524 3.25a155.934 155.934 0 0 1 1.575 3.455 239.54 239.54 0 0 1 1.524 3.2c.475.983.88 1.83 1.22 2.54.44.915.863 1.745 1.27 2.49.406.745.745 1.422 1.016 2.032.27.61.44 1.185.508 1.727a2.701 2.701 0 0 1-.255 1.524c-.095.255-.209.528-.335.813l-.07.152-.02.047a22.228 22.228 0 0 0-.743 1.681c-.17.406-.355.795-.559 1.168-.169.406-.355.813-.558 1.219-.17.406-.356.813-.56 1.22-.169.405-.338.795-.507 1.167-.271.61-.356 1.169-.254 1.677.101.508.322.915.66 1.22.373.338.78.541 1.22.609.473.067.93-.034 1.37-.305.12-.059.233-.13.34-.213.325-.247.6-.6.83-1.057.169-.372.338-.762.507-1.168.203-.373.39-.762.56-1.169.169-.372.338-.762.507-1.168.17-.373.339-.762.508-1.169.136-.338.271-.66.406-.965a8.44 8.44 0 0 0 .458-.965l.406-.914a1635.52 1635.52 0 0 0 4.369-9.703c.88-1.897 1.676-3.658 2.388-5.283a40.8 40.8 0 0 0 .66-1.524c.271-.576.542-1.186.813-1.83.305-.643.593-1.286.863-1.93.305-.643.593-1.27.864-1.88.373-.778.423-1.456.152-2.031a2.158 2.158 0 0 0-1.219-1.22 2.238 2.238 0 0 0-.838-.19zm-32.991 23.762q0 1.27.66 1.93.711.66 1.626.66.914 0 1.574-.66.712-.66.712-1.93V80.723q0-1.93-.61-3.098-.559-1.22-1.524-1.677-.965-.508-2.083-.152-1.117.305-2.184 1.473-1.067 1.168-1.83 3.2-.812 2.083-1.675 4.42-.864 2.337-1.778 4.826-.864 2.438-1.778 4.928-.915 2.489-1.83 4.927-.812 2.134-1.625 3.251-.762 1.118-1.422 1.677-.66.508-1.118.813-.406.254-.508.71-.05.407.305 1.372.559 1.372 1.22 2.236.66.812 1.37 1.117.712.254 1.372 0 .712-.305 1.372-1.219.66-.914 1.22-2.438.507-1.372.406-1.88-.051-.559-.56-.762-.456-.203-1.218-.559-.712-.355-1.575-1.32-.813-1.017-1.626-3.201l-1.829-4.877q-.863-2.438-1.727-4.826-.863-2.387-1.727-4.623-.813-2.286-1.626-4.318-.812-2.133-1.93-3.302-1.067-1.219-2.184-1.524-1.118-.355-2.083.153-.965.457-1.575 1.727-.559 1.22-.559 3.15v27.838q0 1.27.66 1.93.712.66 1.626.66.915 0 1.575-.66.711-.66.711-1.93V84.94q.05-.254.05-.356.052-.101.103 0 .101.051.203.305.101.203.254.61.203.508.457 1.168.254.66.559 1.473.305.813.61 1.727.355.864.66 1.778.355.915.66 1.778.356.864.61 1.677.305.813.559 1.473.457 1.27.762 2.235.355.915.71 1.981.356 1.016.915 2.591.61 1.524 1.575 4.013.559 1.372 1.22 2.236.66.812 1.37 1.117.712.254 1.372 0 .712-.305 1.372-1.219.66-.914 1.22-2.438.863-2.388 1.37-3.912.56-1.524.966-2.54.406-1.067.762-2.032.356-1.016.813-2.286.254-.66.508-1.422.305-.813.61-1.677.355-.914.66-1.778.305-.914.61-1.778.355-.863.66-1.625.305-.813.508-1.474.254-.71.457-1.219.152-.355.254-.559.102-.254.152-.355.102-.102.102 0 .05.05.05.305.052.203.052.66v23.368z" font-size="50.8" font-family="Tilt Neon" letter-spacing="3.096" text-anchor="middle" stroke="#000" stroke-width="3.565" stroke-linecap="round" stroke-linejoin="round" transform="translate(-9.973 -69.13)"/>
  <g transform="translate(-69.47 -121.411) scale(.9158)">
    <path d="M215.825 162.485h-29.687a14.844 14.844 0 0 0 14.844 14.843 14.844 14.844 0 0 0 14.843-14.843z" fill="#eee"/>
    <path d="M200.982 147.64a14.844 14.844 0 0 0-14.844 14.845h29.687a14.844 14.844 0 0 0-14.843-14.844Z" fill="#ea3a30"/>
    <path d="M215.734 160.873h-29.48a14.844 14.844 0 0 0-.117 1.612 14.844 14.844 0 0 0 .116 1.611h29.457a14.844 14.844 0 0 0 .115-1.611 14.844 14.844 0 0 0-.09-1.612z"/>
    <circle cx="200.981" cy="162.485" r="3.976" fill="#fff" stroke="#000" stroke-width="2.765" stroke-linecap="round" stroke-linejoin="round" stroke-miterlimit="2.3"/>
  </g>
</svg>
