<svg xmlns="http://www.w3.org/2000/svg" xml:space="preserve" width="135" height="135" viewBox="0 0 135 135">
  <path fill="#fffbd7" d="M93.229 67.499 67.5 130.608 41.772 67.499 67.5 4.392z"/>
  <path fill="#f9f07d" d="M85.729 67.499 67.5 130.608 49.272 67.499 67.5 4.392z"/>
  <path fill="#ffd00b" d="M77.088 67.499 67.5 130.608l-9.588-63.109L67.5 4.392z"/>
  <path d="M67.5 132.108a1.5 1.5 0 0 1-1.483-1.275l-9.588-63.109a1.542 1.542 0 0 1 0-.45l9.588-63.107a1.5 1.5 0 0 1 2.966 0l9.588 63.107c.022.149.022.301 0 .45l-9.588 63.109a1.5 1.5 0 0 1-1.483 1.275zm-8.07-64.609 8.07 53.123 8.07-53.123-8.07-53.121-8.07 53.121z" class="st205"/>
  <path d="M67.5 132.108a1.5 1.5 0 0 1-1.389-.934L40.384 68.065a1.501 1.501 0 0 1 0-1.133L66.111 3.825a1.5 1.5 0 0 1 2.778 0l25.729 63.107c.148.363.148.77 0 1.133l-25.729 63.109a1.5 1.5 0 0 1-1.389.934zM43.393 67.499 67.5 126.635l24.108-59.136L67.5 8.365 43.393 67.499z" class="st205"/>
  <path d="M92.713 69.001H42.288a1.5 1.5 0 1 1 0-3h50.425a1.5 1.5 0 1 1 0 3zm28.953.002h-.992a1.5 1.5 0 1 1 0-3h.992a1.5 1.5 0 1 1 0 3zm-10.033 0-5.824-.001a1.5 1.5 0 1 1 0-3l5.824.001a1.5 1.5 0 1 1 0 3zm3.707-27.36a1.5 1.5 0 0 1-1.067-2.555l.701-.709a1.5 1.5 0 0 1 2.133 2.109l-.701.709a1.492 1.492 0 0 1-1.066.446zm-10.516 10.511a1.5 1.5 0 0 1-1.06-2.562l4.127-4.122a1.5 1.5 0 1 1 2.119 2.123l-4.127 4.122a1.487 1.487 0 0 1-1.059.439zm11.217 44.912c-.384 0-.768-.146-1.061-.439l-.705-.705a1.5 1.5 0 1 1 2.121-2.121l.705.705a1.5 1.5 0 0 1-1.06 2.56zm-7.092-7.094c-.384 0-.767-.146-1.06-.438l-4.127-4.12a1.5 1.5 0 1 1 2.119-2.123l4.127 4.12a1.5 1.5 0 0 1-1.059 2.561zM14.327 68.997h-.992a1.5 1.5 0 1 1 0-3h.992a1.5 1.5 0 1 1 0 3zm14.865.001-5.824-.001a1.5 1.5 0 1 1 0-3l5.824.001a1.5 1.5 0 1 1 0 3zM18.96 97.066a1.5 1.5 0 0 1-1.067-2.555l.701-.709a1.5 1.5 0 0 1 2.133 2.109l-.701.709a1.488 1.488 0 0 1-1.066.446zm7.09-7.097a1.5 1.5 0 0 1-1.061-2.561l4.127-4.123a1.5 1.5 0 0 1 2.121 2.122L27.11 89.53a1.497 1.497 0 0 1-1.06.439zM19.665 41.64c-.384 0-.769-.146-1.062-.44l-.705-.706a1.5 1.5 0 0 1 2.123-2.121l.705.706a1.5 1.5 0 0 1-1.061 2.561zm10.514 10.508c-.384 0-.767-.146-1.06-.438l-4.127-4.119a1.5 1.5 0 0 1 2.119-2.123l4.127 4.119a1.5 1.5 0 0 1-1.059 2.561z" class="st205"/>
</svg>
